<?xml version="1.0" encoding="utf-8"?>
<!DOCTYPE svg PUBLIC "-//W3C//DTD SVG 20010904//EN" "http://www.w3.org/TR/2001/REC-SVG-20010904/DTD/svg10.dtd">
<svg height="2000.000000pt" preserveAspectRatio="xMidYMid meet" version="1.0" viewBox="0 0 2000.000000 2000.000000" width="2000.000000pt" xmlns="http://www.w3.org/2000/svg">
<g fill="#000000" stroke="none" transform="translate(0.000000,2000.000000) scale(0.100000,-0.100000)">
<path d="M5540 15569 c-86 -10 -323 -76 -434 -121 -226 -93 -367 -187 -555 -371 -216 -212 -359 -437 -464 -727 -88 -246 -81 188 -79 -4370 2 -2708 6 -4074 13 -4155 13 -148 36 -254 89 -410 94 -274 235 -502 448 -719 158 -162 247 -227 456 -336 165 -87 319 -143 491 -181 261 -57 -7 -54 4335 -54 l4025 0 165 38 c350 82 688 253 909 462 232 219 417 510 510 803 54 171 65 262 66 552 l0 245 -33 60 c-18 33 -137 207 -265 386 -127 179 -286 402 -351 495 -307 436 -391 554 -536 759 -86 121 -207 292 -269 380 -62 88 -126 178 -142 200 -16 22 -37 54 -46 72 l-16 32 198 298 c110 164 231 341 269 393 117 158 107 144 364 520 207 303 310 449 357 510 75 95 320 450 390 565 59 96 68 126 77 240 5 61 7 740 5 1510 -4 1562 0 1457 -77 1685 -164 485 -474 842 -925 1068 -122 61 -192 87 -358 133 l-152 42 -4205 1 c-2313 1 -4230 -2 -4260 -5z m8090 -1460 c236 -38 459 -229 571 -489 20 -47 41 -115 48 -151 14 -83 15 -1662 1 -1760 -11 -74 -62 -203 -111 -282 -40 -63 -231 -338 -349 -502 -112 -156 -157 -221 -309 -445 -69 -102 -148 -218 -176 -259 -89 -131 -281 -385 -314 -416 -25 -23 -35 -27 -49 -19 -9 6 -54 66 -99 135 -136 205 -255 379 -318 464 -32 44 -132 188 -221 320 -174 259 -206 294 -297 319 -44 12 -494 15 -2987 20 -1915 4 -2966 9 -3024 16 -157 19 -347 115 -439 224 -92 108 -120 161 -175 331 l-26 80 -4 824 c-1 453 1 877 6 942 9 107 13 125 48 195 64 130 163 247 279 330 64 45 206 103 290 119 92 17 7550 21 7655 4z m-4590 -3399 c1465 -9 1439 -7 1590 -81 100 -50 197 -140 277 -259 28 -41 84 -115 124 -165 107 -130 239 -310 520 -710 85 -121 198 -281 250 -355 207 -293 332 -476 336 -490 5 -20 -118 -203 -312 -465 -45 -60 -124 -171 -175 -245 -52 -74 -169 -241 -260 -370 -92 -129 -186 -264 -210 -300 -24 -36 -77 -112 -119 -170 -42 -57 -87 -121 -101 -141 -25 -37 -161 -229 -346 -489 -53 -74 -108 -159 -122 -189 -47 -101 -25 -179 70 -245 l56 -38 581 1 581 1 62 35 c64 35 91 63 189 195 53 72 91 126 238 340 55 81 229 329 444 635 30 44 71 102 89 128 18 26 53 76 78 111 25 34 50 71 56 81 6 10 15 20 21 22 5 2 37 -34 69 -79 33 -46 121 -168 197 -273 594 -824 802 -1119 839 -1190 63 -120 30 -255 -92 -375 -129 -128 -204 -149 -555 -160 -363 -11 -7282 -12 -7385 0 -241 26 -409 124 -534 314 -56 84 -92 183 -118 321 -18 96 -18 918 -1 1060 25 196 77 310 198 430 65 65 99 90 179 130 l100 50 940 -1 c3358 -4 3801 -3 3836 6 47 13 139 108 206 212 25 40 58 91 73 113 l27 40 -1885 4 c-1038 2 -2176 7 -2531 11 -623 6 -647 7 -703 28 -103 38 -181 86 -246 152 -84 85 -122 146 -159 255 -53 161 -54 175 -50 885 4 561 7 662 20 707 57 188 131 313 236 397 80 64 104 77 202 107 70 22 98 24 400 30 179 4 597 4 930 2 333 -3 1183 -9 1890 -13z" fill="#FF3131"/>
<path d="M8350 12780 c-121 -4 -163 -9 -191 -23 -111 -55 -182 -167 -188 -299 -7 -172 81 -301 239 -348 65 -19 97 -20 1158 -20 759 0 1107 3 1144 11 198 41 321 209 288 391 -15 81 -41 129 -103 196 -82 86 -80 86 -407 89 -607 6 -1792 8 -1940 3z" fill="#FF3131"/>
<path d="M12281 12779 c-68 -13 -125 -46 -176 -100 -69 -73 -97 -142 -98 -239 0 -71 3 -86 33 -145 65 -129 164 -195 301 -203 197 -11 363 117 388 298 34 255 -180 442 -448 389z" fill="#FF3131"/>
<path d="M8205 9723 c-30 -8 -99 -58 -130 -95 -53 -62 -75 -125 -75 -213 0 -65 5 -91 26 -135 29 -64 83 -123 139 -153 l40 -22 875 0 875 0 47 23 c86 43 171 161 184 256 14 99 -48 226 -147 301 l-53 40 -880 1 c-485 1 -890 0 -901 -3z" fill="#FF3131"/>
<path d="M8190 6886 c-162 -61 -220 -138 -220 -295 0 -133 43 -214 135 -257 l50 -24 760 0 c810 0 820 1 899 49 48 30 105 96 128 149 25 55 21 156 -7 215 -26 55 -90 116 -153 145 l-57 27 -750 2 c-598 1 -757 -1 -785 -11z" fill="#FF3131"/>
</g>
</svg>